<?xml version="1.0" encoding="UTF-8" standalone="no"?>
<!DOCTYPE svg PUBLIC "-//W3C//DTD SVG 1.1//EN" "http://www.w3.org/Graphics/SVG/1.1/DTD/svg11.dtd">
<svg width="100%" height="100%" viewBox="0 0 100 100" version="1.1" xmlns="http://www.w3.org/2000/svg" xmlns:xlink="http://www.w3.org/1999/xlink" xml:space="preserve" xmlns:serif="http://www.serif.com/" style="fill-rule:evenodd;clip-rule:evenodd;stroke-linecap:round;stroke-linejoin:round;stroke-miterlimit:1.5;">
    <g id="body">
        <g transform="matrix(1,0,0,1,2.2645,0.25058)">
            <path d="M12.043,76.075C9.797,73.828 12.238,66.307 19.662,66.493C23.876,67.798 24.303,73.175 24.674,76.33C25.045,79.486 15.199,79.23 12.043,76.075Z" style="fill:rgb(158,60,10);stroke:black;stroke-width:1px;"/>
        </g>
        <g transform="matrix(1,0,0,1,-0.705337,-0.677494)">
            <path d="M40.841,28.719C32.931,23.663 32.488,1.805 51.049,1.34C69.611,0.876 71.235,26.863 59.402,30.807C62.29,32.484 65.07,33.671 68.451,32.199C74.505,29.563 77.5,23.846 82.836,26.398C88.172,28.951 85.156,47.28 63.81,46.816C63.346,56.561 64.506,64.914 64.506,64.914C69.147,65.842 80.98,92.292 80.516,94.38C80.052,96.468 76.339,100.644 68.451,95.772C60.562,90.9 61.026,77.443 49.425,73.498C42.204,73.301 39.42,84.448 31.088,85.193C25.898,85.657 17.613,81.327 14.855,77.211C15.536,75.505 21.984,78.045 26.687,74.89C32.315,71.116 37.128,50.296 35.504,45.424C25.803,46.391 22.279,59.809 16.943,58.649C11.606,57.489 5.11,37.071 40.841,28.719Z" style="fill:rgb(111,50,19);stroke:black;stroke-width:1px;"/>
        </g>
        <g transform="matrix(1,0,0,1,0.742459,0.696055)">
            <path d="M40.841,28.719C32.931,23.663 32.488,1.805 51.049,1.34C69.611,0.876 71.235,26.863 59.402,30.807C62.29,32.484 65.07,33.671 68.451,32.199C74.505,29.563 77.5,23.846 82.836,26.398C88.172,28.951 85.156,47.28 63.81,46.816C63.346,56.561 64.506,64.914 64.506,64.914C69.147,65.842 80.98,92.292 80.516,94.38C80.052,96.468 76.339,100.644 68.451,95.772C60.562,90.9 61.026,77.443 49.425,73.498C42.204,73.301 39.42,84.448 31.088,85.193C25.898,85.657 17.613,81.327 14.855,77.211C15.536,75.505 21.984,78.045 26.687,74.89C32.315,71.116 37.128,50.296 35.504,45.424C25.803,46.391 22.279,59.809 16.943,58.649C11.606,57.489 5.11,37.071 40.841,28.719Z" style="fill:rgb(158,60,10);stroke:black;stroke-width:1px;"/>
        </g>
    </g>
    <g id="decoraction">
        <g transform="matrix(0.842102,0,0,0.8647,3.8807,6.9864)">
            <path d="M14.755,44.19C17.428,44.487 19.21,44.339 19.655,47.308C20.101,50.278 20.546,50.575 22.625,50.575C24.704,50.575 23.962,51.912 24.11,53.397" style="fill:none;stroke:rgb(132,0,80);stroke-width:1.17px;"/>
        </g>
        <g transform="matrix(1,0,0,1,0.928073,0.696055)">
            <path d="M74.879,30.343C77.255,31.085 77.403,32.719 77.255,34.204C77.106,35.689 75.621,37.767 77.255,38.51C78.888,39.252 78.888,39.549 78.888,40.589" style="fill:none;stroke:rgb(132,0,80);stroke-width:1px;"/>
        </g>
        <g transform="matrix(1,0,0,1,0.928073,0.696055)">
            <path d="M65.227,90.928C66.563,91.967 67.603,92.709 68.494,90.928C69.385,89.146 71.167,90.037 73.245,90.779C75.324,91.521 76.512,89.294 76.809,88.552" style="fill:none;stroke:rgb(132,0,80);stroke-width:1px;"/>
        </g>
        <g transform="matrix(1,0,0,1,0.928073,0.696055)">
            <ellipse cx="49.19" cy="42.668" rx="1.336" ry="1.485" style="fill:rgb(181,0,23);stroke:black;stroke-width:0.5px;"/>
        </g>
        <g transform="matrix(1,0,0,1,0.928073,0.696055)">
            <ellipse cx="49.338" cy="49.276" rx="1.188" ry="1.708" style="fill:rgb(228,87,0);stroke:black;stroke-width:0.5px;"/>
        </g>
        <g transform="matrix(1,0,0,1,0.928073,0.696055)">
            <ellipse cx="48.967" cy="55.809" rx="1.262" ry="1.559" style="fill:rgb(10,112,159);stroke:black;stroke-width:0.5px;"/>
        </g>
        <g transform="matrix(0.829037,0,0,0.706399,8.76674,3.93449)">
            <ellipse cx="56.243" cy="14.231" rx="1.708" ry="1.856"/>
        </g>
        <g transform="matrix(0.829037,0,0,0.706399,1.02042,3.77878)">
            <ellipse cx="56.243" cy="14.231" rx="1.708" ry="1.856"/>
        </g>
        <g transform="matrix(1,0,0,1,3.89791,1.43851)">
            <path d="M43.592,21.072C45.968,23.002 49.126,24.194 52.652,20.849" style="fill:none;stroke:black;stroke-width:1px;"/>
        </g>
    </g>
</svg>
